<svg width="800" height="800" viewBox="-0.046 304.662 1920.046 1310.638" xmlns="http://www.w3.org/2000/svg"><path d="M1515.03 881.587a298.3 298.3 0 0 0 106.7 19.715 298.64 298.64 0 0 0 210.81-87.492A298.65 298.65 0 0 0 1920 602.982a298.33 298.33 0 0 0-184.17-275.617 298.318 298.318 0 0 0-406.74 217.447 298.25 298.25 0 0 0 16.99 172.365 298.3 298.3 0 0 0 74.24 105.92l-132.98 215.233a298.34 298.34 0 0 0-164.74-13.94 299.3 299.3 0 0 0-48.68 14.07L940.742 822.916a297 297 0 0 0 9.515-9.106c55.913-55.925 87.373-131.745 87.453-210.828a298.3 298.3 0 0 0-50.275-165.743 298.319 298.319 0 0 0-540.634 107.573 298.32 298.32 0 0 0 91.217 278.266L404.983 1038.4a298.32 298.32 0 0 0-317.653 67.63 298.37 298.37 0 0 0-81.643 152.75 298.31 298.31 0 0 0 126.85 306.24 298.3 298.3 0 0 0 165.737 50.28 298.65 298.65 0 0 0 210.846-87.48 298.63 298.63 0 0 0 87.474-210.84c0-59-17.496-116.68-50.276-165.74a298.4 298.4 0 0 0-46.641-54.33l133.042-215.333a298.3 298.3 0 0 0 106.723 19.725 298.6 298.6 0 0 0 106.633-19.832l133.186 215.56a306 306 0 0 0-9.405 9 298.37 298.37 0 0 0-81.643 152.75 298.31 298.31 0 0 0 126.847 306.24 298.34 298.34 0 0 0 165.74 50.28 298.663 298.663 0 0 0 298.32-298.32c0-59-17.5-116.68-50.28-165.74a298.5 298.5 0 0 0-46.77-54.46z"/></svg>